# xmcd
#
# Track frame offsets:
#	150
#	18479
#	32001
#	49603
#	69081
#	82421
#	96136
#	115025
#	126303
#	141484
#	157145
#	171974
#	191911
#	211114
#	229958
#	250236
#	264044
#	281825
#	292743
#	308336
#
# Disc length: 4400 seconds
#
# Revision: 1
# Processed by: cddbd v1.5.2PL0 Copyright (c) Steve Scherf et al.
# Submitted via: audiograbber 1.83.01
#
DISCID=1e112e14
DTITLE=Juhamatti - 40 Unohtumatonta Laulua [CD2)
DYEAR=2007
DGENRE=Pop
TTITLE0=Kun Rakastunut On
TTITLE1=Kaiken Sulle Kerroin
TTITLE2=Vain Rakkaus
TTITLE3=Sulle Rakkautein Jaan
TTITLE4=Kuinka Paljon Tunnenkaan
TTITLE5=Hymy
TTITLE6=Jokainen Päivä On Liikaa
TTITLE7=Suudelmin Suljetut Kirjeet
TTITLE8=Rakkaudella
TTITLE9=Vain Yksi Yö
TTITLE10=Niin Paljon Kuuluu Rakkauteen
TTITLE11=Onnellinen
TTITLE12=Näytän Tien
TTITLE13=Rauhankyyhky
TTITLE14=Viivy Hetki Sylissäin
TTITLE15=Koskee Niin
TTITLE16=Koska Rakastan Sua Niin
TTITLE17=Käy Ohitsein
TTITLE18=Pyyhi Kyyneleesi Pois
TTITLE19=Hän Tahtoi Voittaa
EXTD=TR.
EXTT0=
EXTT1=
EXTT2=
EXTT3=
EXTT4=
EXTT5=
EXTT6=
EXTT7=
EXTT8=
EXTT9=
EXTT10=
EXTT11=
EXTT12=
EXTT13=
EXTT14=
EXTT15=
EXTT16=
EXTT17=
EXTT18=
EXTT19=
PLAYORDER=
